<?xml version="1.0" encoding="UTF-8" standalone="no"?><!DOCTYPE svg PUBLIC "-//W3C//DTD SVG 1.1//EN" "http://www.w3.org/Graphics/SVG/1.1/DTD/svg11.dtd"><svg width="100%" height="100%" viewBox="0 0 1024 1024" version="1.1" xmlns="http://www.w3.org/2000/svg" xmlns:xlink="http://www.w3.org/1999/xlink" xml:space="preserve" xmlns:serif="http://www.serif.com/" style="fill-rule:evenodd;clip-rule:evenodd;stroke-linejoin:round;stroke-miterlimit:2;"><rect x="0" y="0" width="1024" height="1024" style="fill:#191819;"/><path d="M359.222,846.56c-43.332,-52.658 -74.02,-182.675 -74.02,-334.56c-0,-151.885 30.688,-281.902 74.02,-334.56c-27.198,87.594 -43.858,205.261 -43.858,334.56c0,129.299 16.66,246.966 43.858,334.56Z" style="fill:#37baff;"/><path d="M890.463,177.44c43.333,52.658 74.021,182.675 74.021,334.56c0,151.885 -30.688,281.902 -74.021,334.56c27.199,-87.594 43.858,-205.261 43.858,-334.56c0,-129.299 -16.659,-246.966 -43.858,-334.56Z" style="fill:#37baff;"/><rect x="359.222" y="526.408" width="9.452" height="9.452" style="fill:#fc1357;fill-rule:nonzero;"/><path d="M381.584,539.918l8.069,1.198c0.338,2.49 1.275,4.304 2.812,5.441c2.059,1.537 4.872,2.305 8.438,2.305c3.842,0 6.808,-0.768 8.898,-2.305c2.09,-1.537 3.504,-3.689 4.242,-6.455c0.43,-1.691 0.63,-5.241 0.599,-10.651c-3.627,4.273 -8.145,6.409 -13.555,6.409c-6.732,0 -11.942,-2.428 -15.63,-7.285c-3.689,-4.856 -5.533,-10.681 -5.533,-17.474c0,-4.672 0.845,-8.983 2.536,-12.933c1.69,-3.95 4.142,-7.001 7.354,-9.152c3.212,-2.152 6.985,-3.228 11.319,-3.228c5.779,0 10.543,2.336 14.293,7.009l0,-5.902l7.654,-0l-0,42.326c-0,7.623 -0.776,13.025 -2.329,16.206c-1.552,3.182 -4.011,5.695 -7.377,7.539c-3.365,1.844 -7.507,2.766 -12.425,2.766c-5.841,0 -10.559,-1.314 -14.155,-3.942c-3.596,-2.628 -5.333,-6.585 -5.21,-11.872Zm6.87,-29.416c-0,6.424 1.275,11.111 3.827,14.062c2.551,2.951 5.748,4.426 9.59,4.426c3.811,0 7.008,-1.467 9.59,-4.403c2.582,-2.935 3.873,-7.538 3.873,-13.809c-0,-5.994 -1.329,-10.512 -3.988,-13.555c-2.659,-3.043 -5.864,-4.565 -9.614,-4.565c-3.688,0 -6.823,1.499 -9.405,4.496c-2.582,2.997 -3.873,7.446 -3.873,13.348Z" style="fill:#fc1357;fill-rule:nonzero;"/><path d="M467.388,535.86l0,-6.178c-3.104,4.856 -7.669,7.285 -13.693,7.285c-3.904,-0 -7.493,-1.076 -10.766,-3.228c-3.274,-2.151 -5.81,-5.156 -7.608,-9.014c-1.798,-3.857 -2.697,-8.291 -2.697,-13.301c-0,-4.888 0.815,-9.322 2.444,-13.302c1.629,-3.981 4.072,-7.031 7.331,-9.152c3.258,-2.121 6.9,-3.182 10.927,-3.182c2.951,0 5.579,0.623 7.884,1.868c2.305,1.245 4.18,2.866 5.625,4.864l0,-24.252l8.253,-0l0,67.592l-7.7,0Zm-26.234,-24.436c-0,6.27 1.321,10.958 3.965,14.062c2.643,3.105 5.763,4.657 9.36,4.657c3.627,-0 6.708,-1.483 9.244,-4.449c2.536,-2.967 3.804,-7.493 3.804,-13.579c-0,-6.701 -1.291,-11.619 -3.873,-14.754c-2.582,-3.135 -5.764,-4.703 -9.544,-4.703c-3.689,0 -6.77,1.506 -9.245,4.519c-2.474,3.012 -3.711,7.761 -3.711,14.247Z" style="fill:#fc1357;fill-rule:nonzero;"/><path d="M484.817,521.244l8.207,-1.291c0.461,3.289 1.744,5.81 3.85,7.562c2.105,1.752 5.048,2.628 8.829,2.628c3.812,-0 6.639,-0.776 8.484,-2.328c1.844,-1.553 2.766,-3.374 2.766,-5.464c0,-1.875 -0.814,-3.35 -2.444,-4.426c-1.137,-0.738 -3.965,-1.675 -8.483,-2.813c-6.086,-1.537 -10.305,-2.866 -12.656,-3.988c-2.352,-1.122 -4.135,-2.674 -5.349,-4.657c-1.214,-1.982 -1.821,-4.172 -1.821,-6.57c-0,-2.182 0.499,-4.203 1.498,-6.063c0.999,-1.86 2.36,-3.404 4.081,-4.634c1.291,-0.953 3.051,-1.76 5.279,-2.42c2.229,-0.661 4.618,-0.992 7.17,-0.992c3.842,0 7.215,0.554 10.12,1.66c2.905,1.107 5.049,2.605 6.432,4.496c1.383,1.89 2.336,4.418 2.859,7.584l-8.115,1.107c-0.369,-2.521 -1.437,-4.488 -3.205,-5.902c-1.767,-1.414 -4.264,-2.121 -7.492,-2.121c-3.811,0 -6.532,0.63 -8.161,1.891c-1.629,1.26 -2.443,2.735 -2.443,4.426c-0,1.076 0.338,2.044 1.014,2.904c0.676,0.892 1.737,1.63 3.181,2.214c0.83,0.307 3.274,1.014 7.331,2.121c5.871,1.567 9.967,2.85 12.288,3.849c2.32,0.999 4.142,2.452 5.463,4.357c1.322,1.906 1.983,4.273 1.983,7.101c-0,2.766 -0.807,5.371 -2.421,7.815c-1.613,2.444 -3.942,4.334 -6.985,5.671c-3.043,1.337 -6.486,2.006 -10.328,2.006c-6.363,-0 -11.211,-1.322 -14.546,-3.965c-3.336,-2.644 -5.464,-6.563 -6.386,-11.758Z" style="fill:#fc1357;fill-rule:nonzero;"/><path d="M535.35,535.86l-0,-67.592l8.299,-0l-0,24.252c3.873,-4.488 8.76,-6.732 14.662,-6.732c3.627,0 6.778,0.715 9.452,2.144c2.674,1.43 4.587,3.405 5.74,5.925c1.153,2.521 1.729,6.178 1.729,10.973l-0,31.03l-8.299,0l-0,-31.03c-0,-4.149 -0.899,-7.169 -2.697,-9.06c-1.799,-1.89 -4.342,-2.835 -7.631,-2.835c-2.459,-0 -4.772,0.638 -6.939,1.913c-2.167,1.276 -3.712,3.005 -4.634,5.187c-0.922,2.183 -1.383,5.195 -1.383,9.037l-0,26.788l-8.299,0Z" style="fill:#fc1357;fill-rule:nonzero;"/><path d="M619.817,529.82c-3.074,2.613 -6.032,4.457 -8.875,5.533c-2.844,1.076 -5.894,1.614 -9.153,1.614c-5.379,-0 -9.513,-1.314 -12.402,-3.942c-2.89,-2.628 -4.334,-5.987 -4.334,-10.075c-0,-2.397 0.545,-4.587 1.636,-6.57c1.092,-1.982 2.521,-3.573 4.288,-4.772c1.768,-1.199 3.758,-2.105 5.971,-2.72c1.629,-0.431 4.088,-0.845 7.377,-1.245c6.701,-0.799 11.635,-1.752 14.801,-2.859c0.03,-1.137 0.046,-1.859 0.046,-2.167c-0,-3.381 -0.784,-5.763 -2.352,-7.146c-2.121,-1.875 -5.271,-2.813 -9.452,-2.813c-3.903,0 -6.785,0.684 -8.645,2.052c-1.859,1.368 -3.235,3.788 -4.126,7.262l-8.115,-1.107c0.738,-3.473 1.952,-6.278 3.642,-8.414c1.691,-2.137 4.135,-3.781 7.331,-4.934c3.197,-1.152 6.901,-1.729 11.112,-1.729c4.18,0 7.577,0.492 10.19,1.476c2.612,0.983 4.534,2.221 5.763,3.711c1.23,1.491 2.09,3.374 2.582,5.648c0.277,1.414 0.415,3.966 0.415,7.654l-0,11.066c-0,7.715 0.177,12.595 0.53,14.639c0.354,2.044 1.053,4.003 2.098,5.878l-8.668,0c-0.861,-1.721 -1.414,-3.734 -1.66,-6.04Zm-0.691,-18.535c-3.013,1.23 -7.531,2.275 -13.556,3.136c-3.412,0.491 -5.825,1.045 -7.239,1.659c-1.414,0.615 -2.505,1.514 -3.273,2.698c-0.769,1.183 -1.153,2.497 -1.153,3.942c0,2.213 0.838,4.057 2.513,5.533c1.675,1.475 4.127,2.213 7.354,2.213c3.197,-0 6.04,-0.7 8.53,-2.098c2.49,-1.399 4.318,-3.312 5.486,-5.74c0.892,-1.875 1.338,-4.642 1.338,-8.3l-0,-3.043Z" style="fill:#fc1357;fill-rule:nonzero;"/><path d="M672.148,535.86l0,-6.178c-3.104,4.856 -7.669,7.285 -13.693,7.285c-3.904,-0 -7.493,-1.076 -10.766,-3.228c-3.274,-2.151 -5.81,-5.156 -7.608,-9.014c-1.798,-3.857 -2.697,-8.291 -2.697,-13.301c-0,-4.888 0.814,-9.322 2.443,-13.302c1.63,-3.981 4.073,-7.031 7.331,-9.152c3.259,-2.121 6.901,-3.182 10.928,-3.182c2.951,0 5.579,0.623 7.884,1.868c2.305,1.245 4.18,2.866 5.625,4.864l-0,-24.252l8.253,-0l0,67.592l-7.7,0Zm-26.234,-24.436c-0,6.27 1.321,10.958 3.965,14.062c2.643,3.105 5.763,4.657 9.359,4.657c3.627,-0 6.709,-1.483 9.245,-4.449c2.536,-2.967 3.804,-7.493 3.804,-13.579c-0,-6.701 -1.291,-11.619 -3.873,-14.754c-2.582,-3.135 -5.764,-4.703 -9.544,-4.703c-3.689,0 -6.77,1.506 -9.245,4.519c-2.474,3.012 -3.711,7.761 -3.711,14.247Z" style="fill:#fc1357;fill-rule:nonzero;"/><path d="M726.416,520.092l8.576,1.06c-1.353,5.01 -3.858,8.899 -7.516,11.665c-3.658,2.767 -8.33,4.15 -14.016,4.15c-7.162,-0 -12.841,-2.206 -17.037,-6.617c-4.195,-4.41 -6.293,-10.596 -6.293,-18.557c-0,-8.238 2.121,-14.632 6.363,-19.181c4.241,-4.549 9.743,-6.824 16.506,-6.824c6.547,0 11.895,2.229 16.045,6.686c4.15,4.457 6.224,10.727 6.224,18.811c0,0.492 -0.015,1.23 -0.046,2.213l-36.516,0c0.307,5.38 1.829,9.498 4.564,12.357c2.736,2.859 6.148,4.288 10.236,4.288c3.043,-0 5.64,-0.799 7.792,-2.398c2.152,-1.598 3.858,-4.149 5.118,-7.653Zm-27.249,-13.417l27.341,-0c-0.369,-4.119 -1.414,-7.208 -3.135,-9.268c-2.644,-3.197 -6.071,-4.795 -10.282,-4.795c-3.811,0 -7.016,1.276 -9.613,3.827c-2.598,2.551 -4.035,5.963 -4.311,10.236Z" style="fill:#fc1357;fill-rule:nonzero;"/><path d="M745.32,535.86l-0,-48.965l7.469,-0l-0,7.423c1.906,-3.473 3.665,-5.763 5.279,-6.87c1.614,-1.106 3.389,-1.66 5.325,-1.66c2.798,0 5.641,0.892 8.53,2.675l-2.858,7.699c-2.029,-1.198 -4.058,-1.798 -6.087,-1.798c-1.813,0 -3.442,0.546 -4.887,1.637c-1.445,1.091 -2.474,2.605 -3.089,4.541c-0.922,2.951 -1.383,6.179 -1.383,9.683l-0,25.635l-8.299,0Z" style="fill:#fc1357;fill-rule:nonzero;"/><path d="M776.903,477.812l-0,-9.544l8.299,-0l-0,9.544l-8.299,-0Zm-0,58.048l-0,-48.965l8.299,-0l-0,48.965l-8.299,0Z" style="fill:#fc1357;fill-rule:nonzero;"/><path d="M797.835,535.86l0,-48.965l7.469,-0l0,6.962c3.597,-5.379 8.791,-8.069 15.584,-8.069c2.951,0 5.664,0.531 8.138,1.591c2.475,1.06 4.327,2.451 5.556,4.173c1.23,1.721 2.09,3.765 2.582,6.132c0.308,1.537 0.461,4.226 0.461,8.069l0,30.107l-8.299,0l-0,-29.785c-0,-3.381 -0.323,-5.909 -0.968,-7.584c-0.646,-1.675 -1.791,-3.013 -3.435,-4.012c-1.645,-0.999 -3.573,-1.498 -5.787,-1.498c-3.534,-0 -6.585,1.122 -9.152,3.366c-2.566,2.244 -3.85,6.501 -3.85,12.771l0,26.742l-8.299,0Z" style="fill:#fc1357;fill-rule:nonzero;"/><path d="M882.303,517.925l8.16,1.06c-0.891,5.625 -3.173,10.028 -6.846,13.21c-3.674,3.181 -8.184,4.772 -13.533,4.772c-6.701,-0 -12.087,-2.19 -16.16,-6.57c-4.073,-4.381 -6.109,-10.659 -6.109,-18.835c-0,-5.287 0.876,-9.913 2.628,-13.878c1.752,-3.965 4.418,-6.939 7.999,-8.922c3.581,-1.982 7.477,-2.974 11.688,-2.974c5.318,0 9.667,1.345 13.049,4.035c3.381,2.689 5.548,6.508 6.501,11.457l-8.069,1.245c-0.768,-3.289 -2.129,-5.763 -4.08,-7.423c-1.952,-1.66 -4.311,-2.49 -7.078,-2.49c-4.18,0 -7.577,1.499 -10.189,4.496c-2.613,2.996 -3.919,7.738 -3.919,14.223c-0,6.578 1.26,11.358 3.78,14.34c2.521,2.981 5.81,4.472 9.867,4.472c3.258,-0 5.979,-0.999 8.161,-2.997c2.182,-1.998 3.566,-5.072 4.15,-9.221Z" style="fill:#fc1357;fill-rule:nonzero;"/><path d="M167.049,455.704c3.608,0.145 7.091,0.253 10.447,0.325c3.356,0.072 14.976,0.235 17.322,0.271c2.345,0.036 4.348,0.054 6.008,0.054c3.32,-0 6.46,-0.109 9.419,-0.325c2.959,-0.217 5.485,-0.433 7.578,-0.65c0.794,2.743 1.191,4.908 1.191,6.496c0,3.176 -1.317,5.269 -3.951,6.279c-2.635,1.011 -6.442,1.516 -11.422,1.516c-4.98,-0 -10.537,-0.271 -16.672,-0.812c-6.135,-0.541 -12.883,-1.065 -20.245,-1.57c-0.289,8.589 -0.65,17.935 -1.083,28.04c-0.433,10.104 -0.992,20.569 -1.678,31.396c-0.685,10.826 -1.533,21.814 -2.544,32.965c-1.01,11.151 -2.255,22.031 -3.735,32.641c-1.479,10.609 -3.23,20.732 -5.25,30.367c-2.021,9.635 -4.367,18.386 -7.037,26.253c-4.259,12.342 -9.058,22.645 -14.399,30.909c-5.341,8.264 -11.025,14.904 -17.051,19.92c-6.027,5.016 -12.27,8.589 -18.73,10.718c-6.459,2.129 -12.901,3.194 -19.324,3.194c-5.558,-0 -10.7,-0.614 -15.427,-1.841c-4.728,-1.227 -8.824,-2.887 -12.288,-4.98c-3.464,-2.093 -6.189,-4.529 -8.174,-7.307c-1.985,-2.779 -2.977,-5.72 -2.977,-8.824c0,-1.732 0.397,-3.446 1.191,-5.142c0.794,-1.696 1.894,-3.194 3.302,-4.493c1.407,-1.299 3.067,-2.364 4.98,-3.194c1.913,-0.83 3.988,-1.245 6.225,-1.245c2.093,3.753 4.403,6.947 6.929,9.581c2.526,2.635 5.232,4.8 8.119,6.496c2.887,1.696 5.882,2.941 8.986,3.735c3.103,0.794 6.243,1.191 9.419,1.191c8.3,0 15.355,-2.688 21.165,-8.065c5.81,-5.377 10.681,-12.992 14.615,-22.844c3.933,-9.851 7.019,-21.742 9.256,-35.672c2.238,-13.929 3.952,-29.429 5.143,-46.498c1.191,-17.069 1.985,-35.51 2.381,-55.321c0.397,-19.812 0.668,-40.58 0.812,-62.305c-6.784,0.073 -13.063,0.325 -18.837,0.758c-5.774,0.433 -10.61,1.371 -14.507,2.815c-0.289,-0.65 -0.433,-1.335 -0.433,-2.057c-0,-1.732 0.83,-3.338 2.49,-4.818c1.66,-1.479 3.988,-2.796 6.983,-3.951c2.995,-1.155 6.604,-2.093 10.826,-2.815c4.222,-0.722 8.895,-1.191 14.02,-1.407c0.288,-6.785 0.649,-13.262 1.082,-19.433c0.433,-6.171 0.993,-12.27 1.678,-18.296c0.686,-6.027 1.534,-12.072 2.545,-18.134c1.01,-6.063 2.273,-12.342 3.789,-18.838c1.948,-8.444 4.474,-16.04 7.578,-22.789c3.103,-6.748 6.622,-12.738 10.555,-17.971c3.934,-5.233 8.192,-9.725 12.775,-13.478c4.583,-3.754 9.293,-6.839 14.128,-9.257c4.836,-2.418 9.744,-4.186 14.724,-5.305c4.98,-1.118 9.852,-1.678 14.615,-1.678c7.001,0 13.226,0.921 18.675,2.761c5.449,1.84 10.069,4.258 13.858,7.253c3.789,2.996 6.676,6.37 8.661,10.123c1.984,3.753 2.977,7.578 2.977,11.476c-0,3.031 -0.487,5.737 -1.462,8.119c-0.974,2.382 -2.309,4.385 -4.005,6.009c-1.697,1.624 -3.663,2.869 -5.901,3.735c-2.237,0.866 -4.619,1.299 -7.145,1.299c-3.32,-0 -6.82,-0.83 -10.501,-2.49l-0.433,-1.191c1.371,-3.176 2.399,-5.954 3.085,-8.336c0.686,-2.382 1.029,-4.836 1.029,-7.362c-0,-3.464 -0.704,-6.441 -2.111,-8.931c-1.408,-2.49 -3.248,-4.529 -5.522,-6.117c-2.273,-1.588 -4.799,-2.743 -7.578,-3.465c-2.779,-0.721 -5.539,-1.082 -8.282,-1.082c-8.084,-0 -14.922,1.804 -20.516,5.413c-5.593,3.609 -10.248,8.571 -13.965,14.886c-3.717,6.315 -6.658,13.749 -8.824,22.302c-2.165,8.552 -3.807,17.772 -4.925,27.66c-1.119,9.888 -1.913,20.227 -2.382,31.017c-0.469,10.79 -0.884,21.562 -1.245,32.316Z" style="fill:#37baff;fill-rule:nonzero;"/></svg>